<svg xmlns="http://www.w3.org/2000/svg" width="142" height="544" viewBox="0 0 142 544" fill="none">
<path d="M70.5273 135.614L70.2357 0C31.367 0.0775935 -0.0771263 30.4986 0.00340949 67.9473C0.0839453 105.396 31.6586 135.691 70.5273 135.614Z" fill="#F5F4F2"/>
<path d="M71.0039 136L71.2956 271.613C110.164 271.536 141.608 241.115 141.528 203.666C141.447 166.217 109.873 135.922 71.0039 136Z" fill="#F5F4F2"/>
<path d="M70.5234 407.614L70.2318 272C31.3631 272.078 -0.0810325 302.499 -0.000496756 339.947C0.080039 377.396 31.6547 407.691 70.5234 407.614Z" fill="#F5F4F2"/>
<path d="M71 408L71.2916 543.613C110.16 543.536 141.604 513.115 141.524 475.666C141.443 438.217 109.869 407.922 71 408Z" fill="#F5F4F2"/>
</svg>